P3
# 8-bit ppm - RGB
4 4
255
  255   0 255   0   0   0   0   0   0   0   0   0
    0   0   0   0   0   0   0 255 119   0   0   0
    0   0   0   0 255 119   0   0   0   0   0   0
    0   0   0   0   0   0   0   0   0   255   0 255