P3
# 8-bit ppm - RGB
4 4
255
  10   0 255   0   0   0   0   0   0   0   0   0
  0   0   0   0   0   0   0 255 119   0   0   0
  0   0   0   0 255 119   0   0   0   0   0   1 #hello
  2   0   0   0   0   0   0   0   0   
255   0 254